G04*
G04 #@! TF.GenerationSoftware,Altium Limited,Altium Designer,19.0.4 (130)*
G04*
G04 Layer_Color=255*
%FSLAX25Y25*%
%MOIN*%
G70*
G01*
G75*
%ADD13C,0.00394*%
%ADD14R,0.04567X0.05787*%
%ADD15R,0.01575X0.06299*%
%ADD16R,0.08661X0.03937*%
%ADD17R,0.08661X0.13780*%
%ADD18R,0.03858X0.03661*%
%ADD28C,0.05906*%
%ADD29R,0.05906X0.05906*%
%ADD30O,0.04331X0.07087*%
%ADD31R,0.05906X0.05906*%
D13*
X428783Y243311D02*
Y269689D01*
X414217Y243311D02*
Y269689D01*
Y243311D02*
X428783D01*
X414217Y269689D02*
X428783D01*
D14*
X416004Y234000D02*
D03*
X408996D02*
D03*
X433508D02*
D03*
X426500D02*
D03*
D15*
X418264Y312000D02*
D03*
X423382D02*
D03*
X425941D02*
D03*
X428500D02*
D03*
X420823D02*
D03*
D16*
X433311Y247445D02*
D03*
Y256500D02*
D03*
Y265555D02*
D03*
D17*
X409689Y256500D02*
D03*
D18*
X445500Y251000D02*
D03*
Y257063D02*
D03*
X444500Y233437D02*
D03*
Y239500D02*
D03*
D28*
X456000Y322000D02*
D03*
X442000Y211500D02*
D03*
X432000Y221500D02*
D03*
Y211500D02*
D03*
X422000Y221500D02*
D03*
Y211500D02*
D03*
X412000Y221500D02*
D03*
Y211500D02*
D03*
X442000Y189000D02*
D03*
X432000Y199000D02*
D03*
Y189000D02*
D03*
X422000Y199000D02*
D03*
Y189000D02*
D03*
X412000Y199000D02*
D03*
Y189000D02*
D03*
X456500Y287500D02*
D03*
Y277500D02*
D03*
X411500Y287500D02*
D03*
Y277500D02*
D03*
X432811Y287500D02*
D03*
Y277500D02*
D03*
D29*
X456000Y312000D02*
D03*
X456500Y297500D02*
D03*
X411500D02*
D03*
X432811D02*
D03*
D30*
X437457Y308850D02*
D03*
X409307D02*
D03*
X437457Y322512D02*
D03*
X409307D02*
D03*
D31*
X442000Y221500D02*
D03*
Y199000D02*
D03*
M02*
