G04*
G04 #@! TF.GenerationSoftware,Altium Limited,Altium Designer,19.0.4 (130)*
G04*
G04 Layer_Color=128*
%FSLAX25Y25*%
%MOIN*%
G70*
G01*
G75*
%ADD13C,0.00394*%
%ADD32C,0.00200*%
D13*
X428783Y243311D02*
Y269689D01*
X414217Y243311D02*
Y269689D01*
Y243311D02*
X428783D01*
X414217Y269689D02*
X428783D01*
D32*
X454228Y322000D02*
X457772D01*
X456000Y320228D02*
Y323772D01*
X454228Y312000D02*
X457772D01*
X456000Y310228D02*
Y313772D01*
X436473Y308850D02*
X438441D01*
X437457Y307866D02*
Y309835D01*
X408323Y308850D02*
X410291D01*
X409307Y307866D02*
Y309835D01*
X436473Y322512D02*
X438441D01*
X437457Y321528D02*
Y323496D01*
X408323Y322512D02*
X410291D01*
X409307Y321528D02*
Y323496D01*
X440228Y221500D02*
X443772D01*
X442000Y219728D02*
Y223272D01*
X440228Y211500D02*
X443772D01*
X442000Y209728D02*
Y213272D01*
X430228Y221500D02*
X433772D01*
X432000Y219728D02*
Y223272D01*
X430228Y211500D02*
X433772D01*
X432000Y209728D02*
Y213272D01*
X420228Y221500D02*
X423772D01*
X422000Y219728D02*
Y223272D01*
X420228Y211500D02*
X423772D01*
X422000Y209728D02*
Y213272D01*
X410228Y221500D02*
X413772D01*
X412000Y219728D02*
Y223272D01*
X410228Y211500D02*
X413772D01*
X412000Y209728D02*
Y213272D01*
X440228Y199000D02*
X443772D01*
X442000Y197228D02*
Y200772D01*
X440228Y189000D02*
X443772D01*
X442000Y187228D02*
Y190772D01*
X430228Y199000D02*
X433772D01*
X432000Y197228D02*
Y200772D01*
X430228Y189000D02*
X433772D01*
X432000Y187228D02*
Y190772D01*
X420228Y199000D02*
X423772D01*
X422000Y197228D02*
Y200772D01*
X420228Y189000D02*
X423772D01*
X422000Y187228D02*
Y190772D01*
X410228Y199000D02*
X413772D01*
X412000Y197228D02*
Y200772D01*
X410228Y189000D02*
X413772D01*
X412000Y187228D02*
Y190772D01*
X454728Y297500D02*
X458272D01*
X456500Y295728D02*
Y299272D01*
X454728Y287500D02*
X458272D01*
X456500Y285728D02*
Y289272D01*
X454728Y277500D02*
X458272D01*
X456500Y275728D02*
Y279272D01*
X409728Y297500D02*
X413272D01*
X411500Y295728D02*
Y299272D01*
X409728Y287500D02*
X413272D01*
X411500Y285728D02*
Y289272D01*
X409728Y277500D02*
X413272D01*
X411500Y275728D02*
Y279272D01*
X431039Y297500D02*
X434583D01*
X432811Y295728D02*
Y299272D01*
X431039Y287500D02*
X434583D01*
X432811Y285728D02*
Y289272D01*
X431039Y277500D02*
X434583D01*
X432811Y275728D02*
Y279272D01*
M02*
