G04*
G04 #@! TF.GenerationSoftware,Altium Limited,Altium Designer,19.0.4 (130)*
G04*
G04 Layer_Color=2752767*
%FSLAX25Y25*%
%MOIN*%
G70*
G01*
G75*
%ADD13C,0.00394*%
%ADD32C,0.00200*%
%ADD33C,0.00267*%
D13*
X428783Y243311D02*
Y269689D01*
X414217Y243311D02*
Y269689D01*
Y243311D02*
X428783D01*
X414217Y269689D02*
X428783D01*
D32*
X455200Y321200D02*
Y322800D01*
X456800D01*
Y321200D01*
X455200D01*
Y311200D02*
Y312800D01*
X456800D01*
Y311200D01*
X455200D01*
X441200Y220700D02*
Y222300D01*
X442800D01*
Y220700D01*
X441200D01*
Y210700D02*
Y212300D01*
X442800D01*
Y210700D01*
X441200D01*
X431200Y220700D02*
Y222300D01*
X432800D01*
Y220700D01*
X431200D01*
Y210700D02*
Y212300D01*
X432800D01*
Y210700D01*
X431200D01*
X421200Y220700D02*
Y222300D01*
X422800D01*
Y220700D01*
X421200D01*
Y210700D02*
Y212300D01*
X422800D01*
Y210700D01*
X421200D01*
X411200Y220700D02*
Y222300D01*
X412800D01*
Y220700D01*
X411200D01*
Y210700D02*
Y212300D01*
X412800D01*
Y210700D01*
X411200D01*
X441200Y198200D02*
Y199800D01*
X442800D01*
Y198200D01*
X441200D01*
Y188200D02*
Y189800D01*
X442800D01*
Y188200D01*
X441200D01*
X431200Y198200D02*
Y199800D01*
X432800D01*
Y198200D01*
X431200D01*
Y188200D02*
Y189800D01*
X432800D01*
Y188200D01*
X431200D01*
X421200Y198200D02*
Y199800D01*
X422800D01*
Y198200D01*
X421200D01*
Y188200D02*
Y189800D01*
X422800D01*
Y188200D01*
X421200D01*
X411200Y198200D02*
Y199800D01*
X412800D01*
Y198200D01*
X411200D01*
Y188200D02*
Y189800D01*
X412800D01*
Y188200D01*
X411200D01*
X455700Y296700D02*
Y298300D01*
X457300D01*
Y296700D01*
X455700D01*
Y286700D02*
Y288300D01*
X457300D01*
Y286700D01*
X455700D01*
Y276700D02*
Y278300D01*
X457300D01*
Y276700D01*
X455700D01*
X410700Y296700D02*
Y298300D01*
X412300D01*
Y296700D01*
X410700D01*
Y286700D02*
Y288300D01*
X412300D01*
Y286700D01*
X410700D01*
Y276700D02*
Y278300D01*
X412300D01*
Y276700D01*
X410700D01*
X432011Y296700D02*
Y298300D01*
X433611D01*
Y296700D01*
X432011D01*
Y286700D02*
Y288300D01*
X433611D01*
Y286700D01*
X432011D01*
Y276700D02*
Y278300D01*
X433611D01*
Y276700D01*
X432011D01*
D33*
X438257Y308850D02*
G03*
X438257Y308850I-800J0D01*
G01*
X410107D02*
G03*
X410107Y308850I-800J0D01*
G01*
X438257Y322512D02*
G03*
X438257Y322512I-800J0D01*
G01*
X410107D02*
G03*
X410107Y322512I-800J0D01*
G01*
M02*
