G04*
G04 #@! TF.GenerationSoftware,Altium Limited,Altium Designer,19.0.4 (130)*
G04*
G04 Layer_Physical_Order=1*
G04 Layer_Color=255*
%FSLAX25Y25*%
%MOIN*%
G70*
G01*
G75*
%ADD11C,0.01000*%
%ADD13C,0.00394*%
%ADD14R,0.04567X0.05787*%
%ADD15R,0.01575X0.06299*%
%ADD16R,0.08661X0.03937*%
%ADD17R,0.08661X0.13780*%
%ADD18R,0.03858X0.03661*%
%ADD28C,0.05906*%
%ADD29R,0.05906X0.05906*%
%ADD30O,0.04331X0.07087*%
%ADD31R,0.05906X0.05906*%
D11*
X432000Y221500D02*
Y226900D01*
X433508Y228408D01*
Y234000D01*
X433311Y247445D02*
X437600D01*
X441155Y251000D01*
X445500D01*
X409307Y308850D02*
Y322512D01*
X411500Y277500D02*
Y287500D01*
Y297500D01*
X437457Y308850D02*
Y322512D01*
X456500Y277500D02*
Y287500D01*
Y297500D01*
Y304500D01*
X456000Y305000D02*
X456500Y304500D01*
X456000Y305000D02*
Y312000D01*
X432811Y287500D02*
Y297500D01*
Y277500D02*
Y287500D01*
X408996Y234000D02*
Y244900D01*
X409689Y245593D01*
Y256500D01*
X442000Y189000D02*
X446500Y193500D01*
Y207000D01*
X442000Y211500D02*
X446500Y207000D01*
X447800Y303800D02*
X456000Y312000D01*
X432700Y303800D02*
X447800D01*
X428500Y308000D02*
X432700Y303800D01*
X428500Y308000D02*
Y312000D01*
X427400Y272089D02*
X432811Y277500D01*
X427400Y258000D02*
Y272089D01*
Y258000D02*
X428900Y256500D01*
X433311D01*
X445500Y248000D02*
Y251000D01*
X441000Y243500D02*
X445500Y248000D01*
X441000Y234437D02*
Y243500D01*
Y234437D02*
X442000Y233437D01*
X444500D01*
X418264Y308800D02*
Y312000D01*
X433311Y265555D02*
X444000D01*
X449000Y260555D01*
Y248600D02*
Y260555D01*
X444500Y244100D02*
X449000Y248600D01*
X444500Y239500D02*
Y244100D01*
X433311Y256500D02*
X441142D01*
X441705Y257063D01*
X445500D01*
X422000Y218500D02*
Y221500D01*
X417500Y214000D02*
X422000Y218500D01*
X417500Y207500D02*
Y214000D01*
Y207500D02*
X422000Y203000D01*
Y199000D02*
Y203000D01*
X407500Y194500D02*
X412000Y199000D01*
X407500Y187000D02*
Y194500D01*
Y187000D02*
X410000Y184500D01*
X446500D01*
X448500Y186500D01*
Y232737D01*
X447800Y233437D02*
X448500Y232737D01*
X444500Y233437D02*
X447800D01*
X422000Y207500D02*
Y211500D01*
Y207500D02*
X426500Y203000D01*
Y190000D02*
Y203000D01*
X425500Y189000D02*
X426500Y190000D01*
X422000Y189000D02*
X425500D01*
X416004Y227496D02*
X422000Y221500D01*
X416004Y227496D02*
Y234000D01*
X429000Y221500D02*
X432000D01*
X427500Y220000D02*
X429000Y221500D01*
X427500Y207500D02*
Y220000D01*
Y207500D02*
X432000Y203000D01*
Y199000D02*
Y203000D01*
X437500Y203500D02*
X442000Y199000D01*
X437500Y203500D02*
Y217000D01*
X442000Y221500D01*
X407500Y217000D02*
X412000Y221500D01*
X407500Y203500D02*
Y217000D01*
Y203500D02*
X412000Y199000D01*
X411500Y297500D02*
Y302000D01*
X409307Y304193D02*
X411500Y302000D01*
X444000Y265555D02*
X456500Y277500D01*
X412000Y207500D02*
Y211500D01*
Y207500D02*
X416500Y203000D01*
Y190000D02*
Y203000D01*
X415500Y189000D02*
X416500Y190000D01*
X412000Y189000D02*
X415500D01*
X412000Y211500D02*
X416900Y216400D01*
Y223700D01*
X408996Y231604D02*
X416900Y223700D01*
X408996Y231604D02*
Y234000D01*
X426500D02*
Y255000D01*
X428900Y256500D01*
X409307Y304193D02*
Y308800D01*
Y308850D01*
Y308800D02*
X418264D01*
X409689Y256500D02*
X428900D01*
X400000Y329000D02*
X401000Y330000D01*
X400000Y183500D02*
Y329000D01*
Y183500D02*
X402000Y181500D01*
X463000D01*
X464500Y183000D01*
Y328500D01*
X463000Y330000D02*
X464500Y328500D01*
X401000Y330000D02*
X463000D01*
X454001Y251001D02*
X459999D01*
Y254000D01*
X458999Y255000D01*
X457000D01*
X456000Y254000D01*
Y251001D01*
X454001Y245003D02*
X459999D01*
Y248002D01*
X458999Y249002D01*
X457000D01*
X456000Y248002D01*
Y245003D01*
X457000Y237006D02*
X456000Y236006D01*
Y234007D01*
X457000Y233007D01*
X460998D01*
X461998Y234007D01*
Y236006D01*
X460998Y237006D01*
X459999D01*
X458999Y236006D01*
Y233007D01*
X461998Y231008D02*
Y227009D01*
X460998D01*
X457000Y231008D01*
X456000D01*
X460998Y225010D02*
X461998Y224010D01*
Y222011D01*
X460998Y221011D01*
X459999D01*
X458999Y222011D01*
X457999Y221011D01*
X457000D01*
X456000Y222011D01*
Y224010D01*
X457000Y225010D01*
X457999D01*
X458999Y224010D01*
X459999Y225010D01*
X460998D01*
X458999Y224010D02*
Y222011D01*
X460998Y219012D02*
X461998Y218012D01*
Y216013D01*
X460998Y215013D01*
X457000D01*
X456000Y216013D01*
Y218012D01*
X457000Y219012D01*
X460998D01*
X456000Y209015D02*
Y213014D01*
X459999Y209015D01*
X460998D01*
X461998Y210015D01*
Y212014D01*
X460998Y213014D01*
Y207015D02*
X461998Y206016D01*
Y204016D01*
X460998Y203017D01*
X457000D01*
X456000Y204016D01*
Y206016D01*
X457000Y207015D01*
X460998D01*
X461998Y197019D02*
X460998Y199018D01*
X458999Y201017D01*
X457000D01*
X456000Y200018D01*
Y198018D01*
X457000Y197019D01*
X457999D01*
X458999Y198018D01*
Y201017D01*
X460998Y195019D02*
X461998Y194020D01*
Y192020D01*
X460998Y191021D01*
X457000D01*
X456000Y192020D01*
Y194020D01*
X457000Y195019D01*
X460998D01*
X461998Y189021D02*
Y185023D01*
X460998D01*
X457000Y189021D01*
X456000D01*
D13*
X428783Y243311D02*
Y269689D01*
X414217Y243311D02*
Y269689D01*
Y243311D02*
X428783D01*
X414217Y269689D02*
X428783D01*
D14*
X416004Y234000D02*
D03*
X408996D02*
D03*
X433508D02*
D03*
X426500D02*
D03*
D15*
X418264Y312000D02*
D03*
X423382D02*
D03*
X425941D02*
D03*
X428500D02*
D03*
X420823D02*
D03*
D16*
X433311Y247445D02*
D03*
Y256500D02*
D03*
Y265555D02*
D03*
D17*
X409689Y256500D02*
D03*
D18*
X445500Y251000D02*
D03*
Y257063D02*
D03*
X444500Y233437D02*
D03*
Y239500D02*
D03*
D28*
X456000Y322000D02*
D03*
X442000Y211500D02*
D03*
X432000Y221500D02*
D03*
Y211500D02*
D03*
X422000Y221500D02*
D03*
Y211500D02*
D03*
X412000Y221500D02*
D03*
Y211500D02*
D03*
X442000Y189000D02*
D03*
X432000Y199000D02*
D03*
Y189000D02*
D03*
X422000Y199000D02*
D03*
Y189000D02*
D03*
X412000Y199000D02*
D03*
Y189000D02*
D03*
X456500Y287500D02*
D03*
Y277500D02*
D03*
X411500Y287500D02*
D03*
Y277500D02*
D03*
X432811Y287500D02*
D03*
Y277500D02*
D03*
D29*
X456000Y312000D02*
D03*
X456500Y297500D02*
D03*
X411500D02*
D03*
X432811D02*
D03*
D30*
X437457Y308850D02*
D03*
X409307D02*
D03*
X437457Y322512D02*
D03*
X409307D02*
D03*
D31*
X442000Y221500D02*
D03*
Y199000D02*
D03*
M02*
