G04*
G04 #@! TF.GenerationSoftware,Altium Limited,Altium Designer,19.0.4 (130)*
G04*
G04 Layer_Color=16711935*
%FSLAX25Y25*%
%MOIN*%
G70*
G01*
G75*
%ADD13C,0.00394*%
%ADD24C,0.06706*%
%ADD25R,0.06706X0.06706*%
%ADD26O,0.05131X0.07887*%
%ADD27R,0.06706X0.06706*%
D13*
X428783Y243311D02*
Y269689D01*
X414217Y243311D02*
Y269689D01*
Y243311D02*
X428783D01*
X414217Y269689D02*
X428783D01*
D24*
X456000Y322000D02*
D03*
X442000Y211500D02*
D03*
X432000Y221500D02*
D03*
Y211500D02*
D03*
X422000Y221500D02*
D03*
Y211500D02*
D03*
X412000Y221500D02*
D03*
Y211500D02*
D03*
X442000Y189000D02*
D03*
X432000Y199000D02*
D03*
Y189000D02*
D03*
X422000Y199000D02*
D03*
Y189000D02*
D03*
X412000Y199000D02*
D03*
Y189000D02*
D03*
X456500Y287500D02*
D03*
Y277500D02*
D03*
X411500Y287500D02*
D03*
Y277500D02*
D03*
X432811Y287500D02*
D03*
Y277500D02*
D03*
D25*
X456000Y312000D02*
D03*
X456500Y297500D02*
D03*
X411500D02*
D03*
X432811D02*
D03*
D26*
X437457Y308850D02*
D03*
X409307D02*
D03*
X437457Y322512D02*
D03*
X409307D02*
D03*
D27*
X442000Y221500D02*
D03*
Y199000D02*
D03*
M02*
